# xmcd
#
# Track frame offsets: 
#        150
#        18241
#        48544
#        81619
#        109271
#        128120
#        155943
#
# Disc length: 2360 seconds
#
# Revision: 0
# Processed by: cddbd v1.5.2PL0 Copyright (c) Steve Scherf et al.
# Submitted via: ExactAudioCopy v0.99pb5
#
DISCID=5f093607
DTITLE=Luther Dickinson - Hambone's Meditations
DYEAR=2012
DGENRE=Blues
TTITLE0=Death Comes In Wings of Crepe
TTITLE1=Blind Lemon and the Hook Man
TTITLE2=Breckenridge Blues
TTITLE3=Arkabutla
TTITLE4=Tallahatchee (Birds of the Moon)
TTITLE5=Old Gospel Medley I
TTITLE6=Old Gospel Medley II
EXTD=
EXTT0=
EXTT1=
EXTT2=
EXTT3=
EXTT4=
EXTT5=
EXTT6=
PLAYORDER=
